<svg width="146" height="30" viewBox="0 0 146 30" fill="none" xmlns="http://www.w3.org/2000/svg">
<g clip-path="url(#clip0_202_20)">
<path d="M56.9499 29.7249H50.8887V7.84647H56.9499V10.8859C57.352 10.2026 57.8906 9.61408 58.5948 9.08299C59.6951 8.2526 60.9904 7.9412 62.2271 7.72756C63.5921 7.49376 64.9834 7.52399 66.3625 7.81523L66.6131 7.86864L65.5704 14.4362L65.2552 14.3082C63.9861 13.7912 62.6787 13.6512 61.2591 13.8769C59.981 14.0805 58.9272 14.6922 58.128 15.6939C57.4915 16.49 57.0934 17.529 56.9681 18.7827C56.9509 18.954 56.9509 19.5375 56.9509 19.7481V29.7259L56.9499 29.7249Z" fill="#00493E"/>
<path d="M82.907 20.6469C82.133 22.862 80.0193 24.4553 77.5389 24.4553C75.891 24.4553 74.4057 23.7518 73.366 22.6312L88.4782 16.1967C87.3031 11.2576 82.8444 7.57227 77.5379 7.57227C71.3382 7.57227 66.2944 12.603 66.2944 18.7866C66.2944 24.9702 71.3382 30.001 77.5379 30.001C83.102 30.001 87.7335 25.9488 88.6257 20.6479H82.907V20.6469ZM77.5389 13.117C78.7938 13.117 79.9547 13.5261 80.8963 14.2154L71.9071 18.0278C72.2799 15.2595 74.6623 13.116 77.5389 13.116V13.117Z" fill="#00493E"/>
<path d="M146 29.7249H139.928V17.1551C139.928 15.6908 139.616 14.671 139.002 14.1227C138.371 13.5594 137.631 13.2853 136.74 13.2853C136.24 13.2853 135.708 13.4344 135.16 13.7277C134.617 14.0189 134.151 14.5057 133.777 15.1738C133.398 15.848 133.206 16.7459 133.206 17.8454V29.7249H127.132V17.1551C127.132 15.6868 126.84 14.6649 126.265 14.1167C125.678 13.5574 124.975 13.2853 124.117 13.2853C123.615 13.2853 123.068 13.4344 122.49 13.7297C121.918 14.022 121.424 14.5107 121.02 15.1809C120.614 15.8551 120.409 16.752 120.409 17.8454V29.7249H114.337V7.84641H120.409V10.6379C121.015 9.79138 121.716 9.10409 122.499 8.58711C123.518 7.91292 124.703 7.57129 126.019 7.57129C127.511 7.57129 128.757 7.92199 129.721 8.61432C130.469 9.15045 131.177 10.0292 131.831 11.2305C132.391 10.3608 133.25 9.32278 134.444 8.64153C135.692 7.93106 137.046 7.57129 138.469 7.57129C139.891 7.57129 141.273 7.91897 142.393 8.60324C143.517 9.29154 144.41 10.3688 145.049 11.8059C145.681 13.2299 146.001 15.0287 146.001 17.1541V29.7239L146 29.7249Z" fill="#00493E"/>
<path d="M106.785 20.6469C106.011 22.862 103.898 24.4553 101.417 24.4553C99.7694 24.4553 98.2841 23.7518 97.2445 22.6312L112.357 16.1967C111.182 11.2576 106.723 7.57227 101.416 7.57227C95.2166 7.57227 90.1729 12.603 90.1729 18.7866C90.1729 24.9702 95.2166 30.001 101.416 30.001C106.98 30.001 111.612 25.9488 112.504 20.6479H106.785V20.6469ZM101.417 13.117C102.672 13.117 103.833 13.5261 104.775 14.2154L95.7855 18.0278C96.1583 15.2595 98.5408 13.116 101.417 13.116V13.117Z" fill="#00493E"/>
<path d="M46.1134 9.79941C44.3372 8.32103 42.0062 7.57227 39.1853 7.57227C36.5441 7.57227 34.3072 8.20917 32.538 9.46383C30.9103 10.6177 29.7888 12.0457 29.2038 13.7085L29.0987 14.0058L35.0549 15.0861L35.1468 14.9098C35.4095 14.4069 35.7732 13.9705 36.2279 13.6148C36.8634 13.117 37.7455 12.865 38.8488 12.865C40.1764 12.865 41.1333 13.1714 41.692 13.776C42.1638 14.287 42.4639 15.1698 42.5326 16.2269C38.2395 15.9981 34.8255 16.364 32.3814 17.3153C29.717 18.3503 28.3672 20.3073 28.3672 23.1321C28.3672 24.4019 28.6592 25.46 29.3149 26.5635C29.9454 27.6277 30.8719 28.4772 32.0672 29.0879C33.2483 29.6926 34.679 29.999 36.3178 29.999C38.1082 29.999 39.6622 29.6019 40.9372 28.8179C41.7991 28.2888 42.5538 27.6368 43.1884 26.8759V29.7238H48.8273V17.6055C48.8273 13.9232 47.9149 11.2959 46.1164 9.79841L46.1134 9.79941ZM41.597 22.4478C41.1019 23.1754 40.4937 23.7821 39.7905 24.2497C39.0943 24.7122 38.378 24.9602 37.6596 24.9853C36.628 25.0377 35.8298 24.8715 35.2852 24.4926C34.7497 24.1197 34.489 23.5584 34.489 22.7773C34.489 21.7011 35.2711 20.9845 36.8806 20.5855C37.9253 20.3275 39.0903 20.1975 40.3603 20.1975C41.0454 20.1975 41.7617 20.2348 42.5064 20.3103C42.3619 21.0541 42.0557 21.7716 41.596 22.4458L41.597 22.4478Z" fill="#00493E"/>
<path d="M7.86269 9.71976C10.1818 9.71976 12.0618 7.84462 12.0618 5.53151C12.0618 3.2184 10.1818 1.34326 7.86269 1.34326C5.54358 1.34326 3.66357 3.2184 3.66357 5.53151C3.66357 7.84462 5.54358 9.71976 7.86269 9.71976Z" fill="#00493E"/>
<path d="M17.9887 0L16.269 6.42648C18.8 6.753 20.9824 8.18503 22.3151 10.2217L27.4458 5.9871C25.2169 2.92351 21.8625 0.727603 17.9887 0Z" fill="#00493E"/>
<path d="M21.6442 20.3992C20.0802 22.2192 17.7583 23.3721 15.1657 23.3721C10.4543 23.3721 6.63512 19.5627 6.63512 14.8636C6.63512 14.5381 6.65432 14.2166 6.68968 13.9001H0.0313216C0.0111141 14.2196 0 14.5411 0 14.8646C0 23.2189 6.78971 29.991 15.1657 29.991C19.774 29.991 23.9024 27.9403 26.684 24.7043L21.6442 20.3982V20.3992Z" fill="#00493E"/>
</g>
<defs>
<clipPath id="clip0_202_20">
<rect width="146" height="30" fill="white"/>
</clipPath>
</defs>
</svg>
