<svg width="21" height="21" viewBox="0 0 21 21" fill="none" xmlns="http://www.w3.org/2000/svg">
<path d="M14.5714 10.5C14.5714 8.25146 12.7485 6.42862 10.5 6.42862C8.25141 6.42862 6.42858 8.25146 6.42858 10.5C6.42858 12.7486 8.25141 14.5715 10.5 14.5715C12.7485 14.5715 14.5714 12.7486 14.5714 10.5ZM14.5714 10.5V9.14287C14.5714 7.64377 15.7866 6.42862 17.2857 6.42862C18.2486 6.42862 19.0945 6.93001 19.5763 7.6861C19.8446 8.10695 20 8.60676 20 9.14287V10.5C20 15.7467 15.7467 20 10.5 20C5.2533 20 1 15.7467 1 10.5C1 5.25326 5.2533 1 10.5 1C12.5184 1 14.3898 1.62943 15.9286 2.70282" stroke="#FFFCED" stroke-width="2" stroke-linecap="round" stroke-linejoin="round"/>
</svg>
