<svg width="40" height="40" viewBox="0 0 40 40" fill="none" xmlns="http://www.w3.org/2000/svg">
<path d="M40 20C40 8.95434 31.0457 2.94128e-05 20 2.94128e-05C8.95432 2.94128e-05 0 8.95434 0 20C0 29.3796 6.4572 37.2498 15.1685 39.411V26.1117H11.0443V20H15.1685V17.3665C15.1685 10.5591 18.2491 7.40394 24.9323 7.40394C26.1994 7.40394 28.3857 7.65234 29.2801 7.90082V13.4411C28.808 13.3915 27.9882 13.3666 26.9695 13.3666C23.6901 13.3666 22.423 14.6088 22.423 17.8386V20H28.9557L27.8334 26.1117H22.423V39.8535C32.3258 38.6574 40 30.2254 40 20Z" fill="#0866FF"/>
<path d="M27.8336 26.1117L28.9559 20H22.4232V17.8385C22.4232 14.6087 23.6902 13.3666 26.9696 13.3666C27.9883 13.3666 28.8081 13.3914 29.2802 13.4411V7.90083C28.3858 7.65235 26.1995 7.40387 24.9324 7.40387C18.2493 7.40387 15.1686 10.5591 15.1686 17.3665V20H11.0444V26.1117H15.1686V39.411C16.716 39.7949 18.334 40 20.0001 40C20.8204 40 21.6288 39.9494 22.4232 39.8535V26.1117H27.8336Z" fill="white"/>
</svg>
