
<svg xmlns="http://www.w3.org/2000/svg" xmlns:xlink="http://www.w3.org/1999/xlink" id="Layer_1" x="0px" y="0px" viewBox="0 0 729.49 262.39" style="enable-background:new 0 0 729.49 262.39;" xml:space="preserve">
<style type="text/css">
	.st0{fill:url(#SVGID_1_);}
	.st1{fill:url(#SVGID_2_);}
	.st2{fill:url(#SVGID_3_);}
	.st3{fill:url(#SVGID_4_);}
	.st4{fill:url(#SVGID_5_);}
	.st5{fill:url(#SVGID_6_);}
</style>
<g transform="translate(4636.413 -2865.209)">
	
		<linearGradient id="SVGID_1_" gradientUnits="userSpaceOnUse" x1="-16182.6016" y1="2864.4353" x2="-16182.6016" y2="2896.217" gradientTransform="matrix(4.5091 0 0 4.5091 68493.1797 -10004.166)">
		<stop offset="0" style="stop-color:#196EEF"></stop>
		<stop offset="0.5" style="stop-color:#186DEE"></stop>
		<stop offset="1" style="stop-color:#1065E7"></stop>
	</linearGradient>
	<path class="st0" d="M-4457.07,3007.93h24.73v34.74c-7.72,2.48-17.46,3.84-27.59,3.84c-41.05,0-65.18-35.15-65.18-69.49   c0-33.67,21.82-57.29,52.27-57.29c19.27,0,30.48,6.53,40.51,15.62v11.33l18.81-18.81c-11.89-8.05-29.12-15.7-53.74-15.7   c-54.04,0-78.75,38.66-78.75,70.44c0,45.23,32.94,72.47,74.34,72.47c20.07,0,37.89-3.06,58.48-8.79v-35.89   c0-1.84,0.81-3.09,2.01-4.2l6.5-6.5h-44.11L-4457.07,3007.93L-4457.07,3007.93z"></path>
	
		<linearGradient id="SVGID_2_" gradientUnits="userSpaceOnUse" x1="-16154.5254" y1="2875.2407" x2="-16154.5254" y2="2895.7915" gradientTransform="matrix(4.5091 0 0 4.5091 68493.1797 -10004.166)">
		<stop offset="0" style="stop-color:#DE5744"></stop>
		<stop offset="0.5" style="stop-color:#DB4632"></stop>
		<stop offset="1" style="stop-color:#D13D29"></stop>
	</linearGradient>
	<path class="st1" d="M-4346.28,2960.72c-31.11,0-50.38,22.73-50.38,46.86c0,20.82,15.53,45.55,46.99,45.55   c30.26,0,48.83-22.77,48.83-47.32C-4300.84,2982.94-4318.99,2960.73-4346.28,2960.72L-4346.28,2960.72L-4346.28,2960.72z    M-4351.44,2967.35c21.93,0,31.7,28.57,31.7,48.95c0,30.31-22.74,30.91-25.46,30.91c-10.4,0-17.68-6.29-23.12-14.54   c-4.79-7.6-9.48-21.72-9.48-35.52c0-13.75,4.5-20.46,11.58-25.39C-4360.42,2968.06-4355,2967.35-4351.44,2967.35L-4351.44,2967.35z   "></path>
	
		<linearGradient id="SVGID_3_" gradientUnits="userSpaceOnUse" x1="-16110.1396" y1="2875.2407" x2="-16110.1396" y2="2908.2373" gradientTransform="matrix(4.5091 0 0 4.5091 68493.1797 -10004.166)">
		<stop offset="0" style="stop-color:#1A6FEF"></stop>
		<stop offset="0.25" style="stop-color:#1E72EF"></stop>
		<stop offset="0.5" style="stop-color:#166BEC"></stop>
		<stop offset="0.75" style="stop-color:#1267E9"></stop>
		<stop offset="1" style="stop-color:#1063E5;stop-opacity:0.87"></stop>
	</linearGradient>
	<path class="st2" d="M-4142.93,2960.71c-27.17,0-41.87,17.2-41.87,36.41c0,14.62,10.47,31.11,32.08,31.11h5.47   c0,0-1.49,3.62-1.5,7.11c0,5.15,1.85,8.05,5.78,12.5c-37.18,2.27-52.12,17.26-52.12,33.38c0,14.11,13.52,28.01,41.92,28.01   c33.62,0,51.04-18.67,51.04-36.99c0-12.92-6.43-20-22.73-32.2c-4.79-3.72-5.72-6.1-5.72-8.88c0-3.99,2.39-6.64,3.26-7.63   c1.54-1.63,4.22-3.49,5.21-4.38c5.47-4.64,13.21-11.5,13.21-25.2c0-9.4-3.91-17.48-12.82-25.06h10.87l8.17-8.17L-4142.93,2960.71   L-4142.93,2960.71z M-4150.43,2966.83c4.93,0,9.04,1.74,13.39,5.36c4.82,4.35,12.52,16.03,12.52,30.48   c0,15.6-12.12,19.86-18.67,19.86c-3.21,0-7.06-0.9-10.31-3.13c-7.23-4.69-14.41-17.18-14.41-32.04   C-4167.91,2973.96-4159.93,2966.83-4150.43,2966.83z M-4139.67,3053.77c2.07,0,3.56,0.17,3.56,0.17s4.89,3.49,8.31,6.1   c7.96,6.29,12.92,11.1,12.92,19.66c0,11.77-10.92,21-28.6,21c-19.41,0-34.25-9.04-34.25-23.8   C-4177.73,3064.68-4167.57,3054.16-4139.67,3053.77z"></path>
	
		<linearGradient id="SVGID_4_" gradientUnits="userSpaceOnUse" x1="-16094.3115" y1="2865.0127" x2="-16094.3115" y2="2895.2141" gradientTransform="matrix(4.5091 0 0 4.5091 68493.1797 -10004.166)">
		<stop offset="0" style="stop-color:#0AA561"></stop>
		<stop offset="0.5" style="stop-color:#009B58"></stop>
		<stop offset="1" style="stop-color:#00914B"></stop>
	</linearGradient>
	<path class="st3" d="M-4096.79,3050.43h37.3l5.68-5.68l-10.7-1.34c-2.88-0.35-4.59-2.84-4.59-5.25v-112.66   c0-2.22,1.03-3.36,1.78-4.08l6.73-6.73h-31.81l-8.28,8.28h12.36v116.69c0,1.66-0.52,2.79-1.64,3.95L-4096.79,3050.43   L-4096.79,3050.43z"></path>
	
		<linearGradient id="SVGID_5_" gradientUnits="userSpaceOnUse" x1="-16079.708" y1="2875.2407" x2="-16079.708" y2="2895.7341" gradientTransform="matrix(4.5091 0 0 4.5091 68493.1797 -10004.166)">
		<stop offset="0" style="stop-color:#DE5644"></stop>
		<stop offset="0.5" style="stop-color:#DA4531"></stop>
		<stop offset="1" style="stop-color:#CE3A28"></stop>
	</linearGradient>
	<path class="st4" d="M-4008.96,2960.72c-20.82,0-42.95,15.87-42.95,44.37c0,23.53,15.87,48.04,45.53,48.04   c7.39,0,13.48-0.95,19.19-3.57c6.12-2.82,12.01-7.39,16.31-13.15c-8.12,4.09-14.73,6.78-23.53,6.78   c-16.71,0-32.82-12.06-38.46-34.22l59.03-23.86C-3977.24,2972.96-3986.86,2960.72-4008.96,2960.72L-4008.96,2960.72   L-4008.96,2960.72z M-4012.81,2967.24c11.17,0,19.25,9.19,19.25,16.39c0,2.33-1.46,3.56-4.35,4.69l-36.28,14.67   c0,0-0.98-4.57-0.98-9.51C-4035.17,2972.78-4020.2,2967.24-4012.81,2967.24L-4012.81,2967.24z"></path>
	
		<linearGradient id="SVGID_6_" gradientUnits="userSpaceOnUse" x1="-16131.1172" y1="2875.2893" x2="-16131.1172" y2="2895.7546" gradientTransform="matrix(4.5091 0 0 4.5091 68493.1797 -10004.166)">
		<stop offset="0" style="stop-color:#FFC01A"></stop>
		<stop offset="0.5" style="stop-color:#FFBA03"></stop>
		<stop offset="1" style="stop-color:#FFB300"></stop>
	</linearGradient>
	<path class="st5" d="M-4240.72,2960.72c-31.11,0-50.38,22.73-50.38,46.86c0,20.82,15.53,45.55,46.99,45.55   c30.26,0,48.83-22.77,48.83-47.32C-4195.29,2982.94-4213.43,2960.73-4240.72,2960.72L-4240.72,2960.72L-4240.72,2960.72z    M-4245.88,2967.35c21.93,0,31.7,28.57,31.7,48.95c0,30.31-22.74,30.91-25.46,30.91c-10.4,0-17.68-6.29-23.12-14.54   c-4.79-7.6-9.48-21.72-9.48-35.52c0-13.75,4.5-20.46,11.58-25.39C-4254.87,2968.06-4249.45,2967.35-4245.88,2967.35   L-4245.88,2967.35z"></path>
</g>
<g>
	<path d="M226.3,229.33l-6.67-9.82h-8.93l0.1,13.61c0,0.23-0.2,0.41-0.44,0.41h-1.72c-0.25,0-0.44-0.18-0.44-0.41l0.1-16.4   l-0.1-14.75c0-0.23,0.2-0.41,0.44-0.41h10.65c7.31,0,11.97,3.02,11.97,8.86c0,5.43-3.58,8.27-8.93,8.95l9.37,13.8   c0.1,0.18,0,0.37-0.2,0.37h-2.06c-0.25,0-0.54-0.14-0.69-0.37L226.3,229.33z M210.7,216.86v0.69h9.08c5.49,0,8.93-2.06,8.93-7.08   c0-4.52-3.34-6.94-8.93-6.94h-8.98L210.7,216.86z"></path>
	<path d="M241.76,233.73c-0.25,0-0.44-0.18-0.44-0.41l0.15-16.54l-0.15-14.62c0-0.23,0.2-0.41,0.44-0.41h19.04   c0.25,0,0.44,0.18,0.44,0.41v1.14c0,0.23-0.2,0.41-0.44,0.41h-16.88l-0.1,11.83h15.94c0.25,0,0.44,0.18,0.44,0.41v1.14   c0,0.23-0.2,0.41-0.44,0.41h-15.94l0.1,14.25h17.27c0.25,0,0.44,0.18,0.44,0.41v1.14c0,0.23-0.2,0.41-0.44,0.41H241.76z"></path>
	<path d="M283.11,233.57c-0.1,0.18-0.34,0.37-0.59,0.37h-2.21c-0.25,0-0.49-0.18-0.59-0.37l-12.17-31.25   c-0.05-0.18,0.1-0.37,0.3-0.37h1.91c0.25,0,0.49,0.18,0.59,0.37l11.23,29.65l11.19-29.65c0.1-0.18,0.34-0.37,0.59-0.37h1.62   c0.25,0,0.34,0.18,0.29,0.37L283.11,233.57z"></path>
	<path d="M303.96,234.14c-0.25,0-0.44-0.18-0.44-0.41l0.15-16.13l-0.15-15.03c0-0.23,0.2-0.41,0.44-0.41h1.72   c0.25,0,0.44,0.18,0.44,0.41l-0.15,15.03l0.15,16.13c0,0.23-0.2,0.41-0.44,0.41H303.96z"></path>
	<path d="M317.17,234.34c-0.25,0-0.44-0.18-0.44-0.41l0.15-16.54l-0.15-14.62c0-0.23,0.2-0.41,0.44-0.41h19.04   c0.25,0,0.44,0.18,0.44,0.41v1.14c0,0.23-0.2,0.41-0.44,0.41h-16.88l-0.1,11.83h15.94c0.25,0,0.44,0.18,0.44,0.41v1.14   c0,0.23-0.2,0.41-0.44,0.41h-15.94l0.1,14.25h17.27c0.25,0,0.44,0.18,0.44,0.41v1.14c0,0.23-0.2,0.41-0.44,0.41H317.17z"></path>
	<path d="M407.55,233.76c-8.54,0-12.9-4.16-13.3-11.15c0-0.23,0.2-0.41,0.44-0.41h1.72c0.25,0,0.44,0.18,0.44,0.41   c0.44,5.76,3.39,9.18,10.79,9.18c5.54,0,9.96-2.1,9.96-7.36c0-10.19-22.62-3.11-22.62-14.8c0-5.76,4.96-8.73,11.68-8.73   c7.8,0,12.22,3.24,12.71,9.59c0.05,0.23-0.15,0.41-0.39,0.41h-1.72c-0.25,0-0.44-0.18-0.49-0.41c-0.34-5.12-3.53-7.58-10.06-7.58   c-5.59,0-9.37,2.05-9.37,6.53c0,9.41,22.67,2.42,22.67,14.8C420.01,230.66,414.51,233.76,407.55,233.76z"></path>
	<g>
		<g>
			<polygon points="359.87,234.47 357.66,234.47 343.43,202.66 345.57,202.63 358.79,232.18 372.88,202.68 375.06,202.68    "></polygon>
		</g>
		<g>
			<polygon points="378.15,234.47 375.9,234.47 360.42,202.68 362.61,202.68 376.99,232.24 389.87,202.63 392,202.65    "></polygon>
		</g>
	</g>
</g>
</svg>