<svg width="106" height="156" viewBox="0 0 106 156" fill="none" xmlns="http://www.w3.org/2000/svg">
<circle cx="53" cy="53" r="52" fill="#FFFCED" stroke="#552B1B" stroke-width="2"/>
<mask id="path-2-inside-1_15_191" fill="white">
<path d="M0 53H106V156H0V53Z"/>
</mask>
<path d="M0 53H106V156H0V53Z" fill="#FFFCED"/>
<path d="M106 156V158H108V156H106ZM0 156H-2V158H0V156ZM106 53H104V156H106H108V53H106ZM106 156V154H0V156V158H106V156ZM0 156H2V53H0H-2V156H0Z" fill="#552B1B" mask="url(#path-2-inside-1_15_191)"/>
<path d="M50.0849 17.5939C49.6037 17.6041 49.3989 17.6861 49.02 18.0649C47.9346 19.1503 47.5045 21.0139 47.8936 22.939C48.1701 24.3623 48.9995 26.0723 50.771 28.9087C52.0714 31.0078 52.4912 31.9191 52.5732 32.9226C52.6653 34.2435 52.4196 34.817 51.0679 36.2505C49.6753 37.7455 49.6037 38.022 50.3716 38.7899C50.986 39.4043 51.713 39.5784 52.7063 39.3634C54.3446 38.9947 55.901 37.5202 56.5154 35.759C56.9967 34.3357 56.966 32.4209 56.4335 30.8645C56.0444 29.7381 55.6143 28.9599 53.2797 25.1303C52.0202 23.0721 51.5697 21.741 51.4775 19.8466C51.4263 18.5667 51.3546 18.2697 51.0475 17.9625C50.7812 17.6963 50.5252 17.6041 50.0849 17.5939Z" fill="#552B1B"/>
<path d="M66.1088 41.2625C59.4185 41.8707 50.252 42.1459 39.3478 42.0879L30.6737 42.0445L30.2537 42.5224C29.4718 43.3912 29.7179 44.0429 31.4122 45.6068C33.8161 47.8369 34.6125 48.0831 38.2762 47.7211C42.0847 47.3446 43.4894 47.2577 43.4315 47.4314C43.4025 47.5183 42.9681 47.9238 42.4612 48.3293C40.5932 49.8787 39.1306 52.0509 38.5658 54.1362C38.2183 55.396 38.2328 58.046 38.5803 59.3493C39.3478 62.2166 41.0711 64.5046 43.7066 66.2133C46.429 67.98 50.1941 68.9068 53.8578 68.7185C56.5513 68.5737 58.318 68.1103 60.4756 66.9663C63.4732 65.3734 65.6164 63.0565 66.4129 60.5802C67.2528 57.9736 66.688 53.9913 65.2254 52.2681C64.2117 51.0662 61.9961 50.1104 60.577 50.2697C60.0412 50.3276 59.795 50.4435 59.4909 50.791C58.8682 51.4861 58.9406 51.993 59.8819 53.4121C60.939 54.9905 61.1562 55.787 61.0838 57.684C61.0404 59.0452 60.997 59.248 60.4756 60.2906C59.4475 62.3759 57.3622 64.0557 55.0163 64.6494C53.1627 65.1273 49.9334 64.6639 48.0075 63.6502C46.5159 62.8537 45.0244 61.1595 44.4017 59.5231C44.141 58.828 44.0976 58.3936 44.0976 56.6559V54.6285L44.6479 53.5135C45.6471 51.5006 47.7034 49.7774 50.2955 48.7637C51.8884 48.1555 52.7572 47.9528 55.3204 47.6342C58.8827 47.1708 61.3155 47.0115 65.8191 46.968C70.1924 46.9246 70.5689 46.8812 71.2206 46.273C72.0605 45.5055 72.1618 44.7235 71.5971 43.594C71.1626 42.7106 70.4386 42.0445 69.4394 41.6101C68.5271 41.1901 67.7451 41.1032 66.1088 41.2625Z" fill="#552B1B"/>
<path d="M69.5842 70.4997C65.8336 70.7604 58.7958 71.0934 50.6864 71.3831C47.4427 71.4989 30.6013 71.7016 27.4154 71.6582C26.8507 71.6582 26.1266 72.223 26.0252 72.7732C25.866 73.6421 26.4452 74.453 28.1974 75.8577C30.0365 77.3348 31.3543 77.5954 34.5401 77.1031C36.2633 76.8279 40.0574 76.4369 40.8973 76.4369H41.491L41.4475 81.3895C41.3896 86.8922 41.5779 90.918 41.9399 91.7579C42.635 93.4232 44.0976 93.6404 45.5891 92.2937C47.0807 90.9469 47.3268 89.5712 47.4861 81.7515C47.5441 78.1747 47.6454 76.0894 47.7468 75.988C47.8337 75.9011 49.7597 75.8143 53.0324 75.7563L58.1731 75.6694L58.26 84.9952C58.3469 95.494 58.3324 95.4216 59.3751 96.4497C59.8384 96.9131 60.0122 97 60.5335 97C61.7499 97 62.4016 96.4208 63.2125 94.6396C63.6325 93.7418 64.0524 91.8882 64.2986 89.9043C64.3855 89.2237 64.4869 85.7482 64.5448 82.1714L64.6317 75.6694L70.0765 75.7708C76.955 75.8867 76.8247 75.9011 77.6501 75.5391C79.8512 74.5979 79.3299 71.8899 76.7523 70.7314C75.5793 70.1956 74.3195 70.1522 69.5842 70.4997Z" fill="#552B1B"/>
<path d="M20.325 116.45C20.325 115.26 20.1617 114.385 19.835 113.825C19.5083 113.242 18.855 112.95 17.875 112.95H17.525V111.9H21.725C22.565 111.9 23.2067 112.04 23.65 112.32C24.0933 112.6 24.4083 113.067 24.595 113.72C24.7817 114.35 24.875 115.26 24.875 116.45V122.225H34.325V111.9H38.875V130.45C38.875 131.64 39.0383 132.527 39.365 133.11C39.6917 133.67 40.345 133.95 41.325 133.95H41.675V135H37.475C36.635 135 35.9933 134.872 35.55 134.615C35.1067 134.335 34.7917 133.88 34.605 133.25C34.4183 132.597 34.325 131.663 34.325 130.45V123.8H24.875V135H20.325V116.45ZM51.9554 125.76L45.7604 116.45C45.0604 115.447 44.2904 114.572 43.4504 113.825C42.6338 113.078 41.8521 112.67 41.1054 112.6V111.9H44.9204C46.1104 111.9 47.1838 112.273 48.1404 113.02C49.1204 113.767 49.9488 114.677 50.6254 115.75L55.3854 122.925L62.1754 111.9H64.4504L56.5054 124.815V135H51.9554V125.76ZM77.1798 135.35C70.8798 135.35 67.7298 131.873 67.7298 124.92V116.45C67.7298 115.26 67.5664 114.385 67.2398 113.825C66.9131 113.242 66.2598 112.95 65.2798 112.95V111.9H69.1298C69.9698 111.9 70.6114 112.04 71.0548 112.32C71.4981 112.6 71.8131 113.067 71.9998 113.72C72.1864 114.35 72.2798 115.26 72.2798 116.45L72.3148 125.97C72.3381 128.443 72.8164 130.368 73.7498 131.745C74.7064 133.098 76.0831 133.775 77.8798 133.775C80.2598 133.775 81.9864 133.075 83.0598 131.675C84.1564 130.252 84.7048 128 84.7048 124.92V111.9H86.4548V124.92C86.4548 128.35 85.7314 130.952 84.2848 132.725C82.8381 134.475 80.4698 135.35 77.1798 135.35Z" fill="#552B1B"/>
</svg>
