<svg width="106" height="156" viewBox="0 0 106 156" fill="none" xmlns="http://www.w3.org/2000/svg">
<g clip-path="url(#clip0_169_10)">
<path d="M53 105C81.7188 105 105 81.7188 105 53C105 24.2812 81.7188 1 53 1C24.2812 1 1 24.2812 1 53C1 81.7188 24.2812 105 53 105Z" fill="#552B1B" stroke="#FFFCED" stroke-width="2"/>
<path d="M0 53H106V156H0V53Z" fill="#552B1B"/>
<mask id="mask0_169_10" style="mask-type:luminance" maskUnits="userSpaceOnUse" x="0" y="53" width="106" height="103">
<path d="M0 53H106V156H0V53Z" fill="white"/>
</mask>
<g mask="url(#mask0_169_10)">
<path d="M106 156V158H108V156H106ZM0 156H-2V158H0V156ZM106 53H104V156H106H108V53H106ZM106 156V154H0V156V158H106V156ZM0 156H2V53H0H-2V156H0Z" fill="#FFFCED"/>
</g>
<path d="M50.0849 17.5939C49.6037 17.6041 49.3989 17.6861 49.02 18.0649C47.9346 19.1503 47.5045 21.0139 47.8936 22.939C48.1701 24.3623 48.9995 26.0723 50.771 28.9087C52.0714 31.0078 52.4912 31.9191 52.5732 32.9226C52.6653 34.2435 52.4196 34.817 51.0679 36.2505C49.6753 37.7455 49.6037 38.022 50.3716 38.7899C50.986 39.4043 51.713 39.5784 52.7063 39.3634C54.3446 38.9947 55.901 37.5202 56.5154 35.759C56.9967 34.3357 56.966 32.4209 56.4335 30.8645C56.0444 29.7381 55.6143 28.9599 53.2797 25.1303C52.0202 23.0721 51.5697 21.741 51.4775 19.8466C51.4263 18.5667 51.3546 18.2697 51.0475 17.9625C50.7812 17.6963 50.5252 17.6041 50.0849 17.5939Z" fill="#FFFCED"/>
<path d="M66.1087 41.2625C59.4184 41.8707 50.2519 42.1459 39.3477 42.0879L30.6736 42.0445L30.2536 42.5224C29.4717 43.3912 29.7178 44.0429 31.4121 45.6068C33.816 47.8369 34.6124 48.0831 38.2761 47.7211C42.0846 47.3446 43.4893 47.2577 43.4314 47.4314C43.4024 47.5183 42.968 47.9238 42.4611 48.3293C40.5931 49.8787 39.1305 52.0509 38.5657 54.1362C38.2182 55.396 38.2327 58.046 38.5802 59.3493C39.3477 62.2166 41.071 64.5046 43.7065 66.2133C46.4289 67.98 50.194 68.9068 53.8577 68.7185C56.5512 68.5737 58.3179 68.1103 60.4755 66.9663C63.4731 65.3734 65.6163 63.0565 66.4128 60.5802C67.2527 57.9736 66.6879 53.9913 65.2253 52.2681C64.2116 51.0662 61.996 50.1104 60.5769 50.2697C60.0411 50.3276 59.7949 50.4435 59.4908 50.791C58.8681 51.4861 58.9405 51.993 59.8818 53.4121C60.9389 54.9905 61.1561 55.787 61.0837 57.684C61.0403 59.0452 60.9969 59.248 60.4755 60.2906C59.4474 62.3759 57.3621 64.0557 55.0162 64.6494C53.1626 65.1273 49.9333 64.6639 48.0074 63.6502C46.5158 62.8537 45.0243 61.1595 44.4016 59.5231C44.1409 58.828 44.0975 58.3936 44.0975 56.6559V54.6285L44.6478 53.5135C45.647 51.5006 47.7033 49.7774 50.2954 48.7637C51.8883 48.1555 52.7571 47.9528 55.3203 47.6342C58.8826 47.1708 61.3154 47.0115 65.819 46.968C70.1923 46.9246 70.5688 46.8812 71.2205 46.273C72.0604 45.5055 72.1617 44.7235 71.597 43.594C71.1625 42.7106 70.4385 42.0445 69.4393 41.6101C68.527 41.1901 67.745 41.1032 66.1087 41.2625Z" fill="#FFFCED"/>
<path d="M69.5842 70.4997C65.8336 70.7604 58.7958 71.0934 50.6864 71.3831C47.4427 71.4989 30.6013 71.7016 27.4154 71.6582C26.8507 71.6582 26.1266 72.223 26.0252 72.7732C25.866 73.6421 26.4452 74.453 28.1974 75.8577C30.0365 77.3348 31.3543 77.5954 34.5401 77.1031C36.2633 76.8279 40.0574 76.4369 40.8973 76.4369H41.491L41.4475 81.3895C41.3896 86.8922 41.5779 90.918 41.9399 91.7579C42.635 93.4232 44.0976 93.6404 45.5891 92.2937C47.0807 90.9469 47.3268 89.5712 47.4861 81.7515C47.5441 78.1747 47.6454 76.0894 47.7468 75.988C47.8337 75.9011 49.7597 75.8143 53.0324 75.7563L58.1731 75.6694L58.26 84.9952C58.3469 95.494 58.3324 95.4216 59.3751 96.4497C59.8384 96.9131 60.0122 97 60.5335 97C61.7499 97 62.4016 96.4208 63.2125 94.6396C63.6325 93.7418 64.0524 91.8882 64.2986 89.9043C64.3855 89.2237 64.4869 85.7482 64.5448 82.1714L64.6317 75.6694L70.0765 75.7708C76.955 75.8867 76.8247 75.9011 77.6501 75.5391C79.8512 74.5979 79.3299 71.8899 76.7523 70.7314C75.5793 70.1956 74.3195 70.1522 69.5842 70.4997Z" fill="#FFFCED"/>
<path d="M20.3249 116.45C20.3249 115.26 20.1616 114.385 19.8349 113.825C19.5082 113.242 18.8549 112.95 17.8749 112.95H17.5249V111.9H21.7249C22.5649 111.9 23.2066 112.04 23.6499 112.32C24.0932 112.6 24.4082 113.067 24.5949 113.72C24.7816 114.35 24.8749 115.26 24.8749 116.45V122.225H34.3249V111.9H38.8749V130.45C38.8749 131.64 39.0382 132.527 39.3649 133.11C39.6916 133.67 40.3449 133.95 41.3249 133.95H41.6749V135H37.4749C36.6349 135 35.9932 134.872 35.5499 134.615C35.1066 134.335 34.7916 133.88 34.6049 133.25C34.4182 132.597 34.3249 131.663 34.3249 130.45V123.8H24.8749V135H20.3249V116.45ZM51.9553 125.76L45.7603 116.45C45.0603 115.447 44.2903 114.572 43.4503 113.825C42.6337 113.078 41.852 112.67 41.1053 112.6V111.9H44.9203C46.1103 111.9 47.1837 112.273 48.1403 113.02C49.1203 113.767 49.9487 114.677 50.6253 115.75L55.3853 122.925L62.1753 111.9H64.4503L56.5053 124.815V135H51.9553V125.76ZM77.1797 135.35C70.8797 135.35 67.7297 131.873 67.7297 124.92V116.45C67.7297 115.26 67.5663 114.385 67.2397 113.825C66.913 113.242 66.2597 112.95 65.2797 112.95V111.9H69.1297C69.9697 111.9 70.6113 112.04 71.0547 112.32C71.498 112.6 71.813 113.067 71.9997 113.72C72.1863 114.35 72.2797 115.26 72.2797 116.45L72.3147 125.97C72.338 128.443 72.8163 130.368 73.7497 131.745C74.7063 133.098 76.083 133.775 77.8797 133.775C80.2597 133.775 81.9863 133.075 83.0597 131.675C84.1563 130.252 84.7047 128 84.7047 124.92V111.9H86.4547V124.92C86.4547 128.35 85.7313 130.952 84.2847 132.725C82.838 134.475 80.4697 135.35 77.1797 135.35Z" fill="#FFFCED"/>
</g>
<defs>
<clipPath id="clip0_169_10">
<rect width="106" height="156" fill="white"/>
</clipPath>
</defs>
</svg>
