<svg width="193" height="67" viewBox="0 0 193 67" fill="none" xmlns="http://www.w3.org/2000/svg">
<rect width="193" height="67" fill="#FEEE00"/>
<g clip-path="url(#clip0_202_50)">
<path d="M171.706 19.6782C168.639 19.6782 165.855 20.6759 163.72 22.5127L163.105 20.3356H157.692V47.7062H164.573V32.8344C164.573 29.6689 166.695 26.4614 170.746 26.4614C173.916 26.4614 175.804 28.6945 175.804 32.4288V47.7109H182.685V31.9253C182.685 24.4848 178.378 19.6782 171.706 19.6782ZM116.709 33.9999C116.709 38.3682 113.86 41.5384 109.93 41.5384C106 41.5384 103.151 38.3682 103.151 33.9999C103.151 29.6316 106 26.4614 109.93 26.4614C113.855 26.4614 116.709 29.6316 116.709 33.9999ZM109.925 19.6782C102.21 19.6782 96.163 25.9673 96.163 33.9952C96.163 42.0232 102.205 48.3169 109.925 48.3169C117.641 48.3169 123.688 42.0279 123.688 33.9952C123.688 25.9673 117.646 19.6782 109.925 19.6782ZM146.779 33.9999C146.779 38.3682 143.925 41.5384 140 41.5384C136.075 41.5384 133.221 38.3682 133.221 33.9999C133.221 29.6316 136.075 26.4614 140 26.4614C143.93 26.4614 146.779 29.6316 146.779 33.9999ZM140 19.6782C132.284 19.6782 126.238 25.9673 126.238 33.9952C126.238 42.0232 132.28 48.3169 140 48.3169C147.716 48.3169 153.762 42.0279 153.762 33.9952C153.762 25.9673 147.72 19.6782 140 19.6782ZM81.2585 19.6782C78.1956 19.6782 75.4077 20.6759 73.2679 22.5127L72.6525 20.3356H67.2446V47.7062H74.1257V32.8344C74.1257 29.6689 76.2469 26.4614 80.2982 26.4614C83.4683 26.4614 85.3564 28.6945 85.3564 32.4288V47.7109H92.2375V31.9253C92.2375 24.4848 87.9299 19.6782 81.2585 19.6782Z" fill="#404553"/>
<path d="M10 35.1375C10 48.0047 20.9371 58 33.6503 58C46.9604 58 57.7482 47.2634 57.7482 34.1492C57.7482 26.4802 54.0373 19.7483 48.5455 15.2494L44.5361 22.1772C47.8508 24.9977 50.1259 29.352 50.1259 34.2517C50.1259 43.1562 42.7552 50.4802 33.6503 50.4802C24.5967 50.4802 17.2214 43.1562 17.2214 34.0047C17.2214 32.9138 17.3194 31.8275 17.5198 30.7879L10 35.1375ZM41.0723 11.1888C38.7972 10.345 36.7692 10 34.7413 10C33.2075 10 31.8695 10.1958 30.8811 10.3963L25.7343 19.3007C27.6131 18.2145 30.0373 17.6177 32.662 17.6177C34.1958 17.6177 35.5804 17.8135 37.0163 18.2098L41.0723 11.1888Z" fill="#404553"/>
</g>
<defs>
<clipPath id="clip0_202_50">
<rect width="173" height="48" fill="white" transform="translate(10 10)"/>
</clipPath>
</defs>
</svg>
