<svg width="21" height="21" viewBox="0 0 21 21" fill="none" xmlns="http://www.w3.org/2000/svg">
<path d="M19.9994 18.0857V15.2254C20.011 14.7578 19.8501 14.3022 19.547 13.9454C18.6926 12.939 15.7624 12.2953 14.6009 12.5425C13.6955 12.7353 13.062 13.6443 12.4427 14.2624C10.051 12.9051 8.07072 10.9288 6.71076 8.54175C7.33006 7.92371 8.24098 7.2915 8.43411 6.38786C8.68142 5.23043 8.03858 2.31891 7.03917 1.46111C6.68764 1.15939 6.23816 0.995533 5.77454 1.00009H2.90856C1.81655 1.00112 0.908034 1.98056 1.00746 3.07859C0.999995 12.5425 8.38893 20 17.9168 19.9925C19.0207 20.0922 20.0038 19.1791 19.9994 18.0857Z" stroke="#FFFCED" stroke-width="2" stroke-linecap="round" stroke-linejoin="round"/>
</svg>
